<svg width="534" height="326" viewBox="0 0 534 326" fill="none" xmlns="http://www.w3.org/2000/svg">
<ellipse cx="114" cy="152" rx="105" ry="106" fill="#0051FF"/>
<g filter="url(#filter0_d_59_5)">
<circle cx="114.5" cy="151.5" r="77.5" fill="white"/>
</g>
<rect x="21" y="146" width="104" height="12" fill="#0051FF"/>
<path d="M238.34 192V115H274.42C283.66 115 290.7 116.833 295.54 120.5C300.38 124.093 302.8 128.933 302.8 135.02C302.8 139.127 301.847 142.647 299.94 145.58C298.033 148.44 295.467 150.677 292.24 152.29C289.087 153.83 285.64 154.6 281.9 154.6L283.88 150.64C288.207 150.64 292.093 151.447 295.54 153.06C298.987 154.6 301.7 156.873 303.68 159.88C305.733 162.887 306.76 166.627 306.76 171.1C306.76 177.7 304.23 182.833 299.17 186.5C294.11 190.167 286.593 192 276.62 192H238.34ZM252.64 180.78H275.74C281.093 180.78 285.2 179.9 288.06 178.14C290.92 176.38 292.35 173.557 292.35 169.67C292.35 165.857 290.92 163.07 288.06 161.31C285.2 159.477 281.093 158.56 275.74 158.56H251.54V147.45H272.88C277.867 147.45 281.68 146.57 284.32 144.81C287.033 143.05 288.39 140.41 288.39 136.89C288.39 133.297 287.033 130.62 284.32 128.86C281.68 127.1 277.867 126.22 272.88 126.22H252.64V180.78ZM356.892 192V180.12L356.122 177.59V156.8C356.122 152.767 354.912 149.65 352.492 147.45C350.072 145.177 346.405 144.04 341.492 144.04C338.192 144.04 334.928 144.553 331.702 145.58C328.548 146.607 325.872 148.037 323.672 149.87L318.282 139.86C321.435 137.44 325.175 135.643 329.502 134.47C333.902 133.223 338.448 132.6 343.142 132.6C351.648 132.6 358.212 134.653 362.832 138.76C367.525 142.793 369.872 149.063 369.872 157.57V192H356.892ZM338.412 192.77C334.012 192.77 330.162 192.037 326.862 190.57C323.562 189.03 320.995 186.94 319.162 184.3C317.402 181.587 316.522 178.543 316.522 175.17C316.522 171.87 317.292 168.9 318.832 166.26C320.445 163.62 323.048 161.53 326.642 159.99C330.235 158.45 335.002 157.68 340.942 157.68H357.992V166.81H341.932C337.238 166.81 334.085 167.58 332.472 169.12C330.858 170.587 330.052 172.42 330.052 174.62C330.052 177.113 331.042 179.093 333.022 180.56C335.002 182.027 337.752 182.76 341.272 182.76C344.645 182.76 347.652 181.99 350.292 180.45C353.005 178.91 354.948 176.637 356.122 173.63L358.432 181.88C357.112 185.327 354.728 188.003 351.282 189.91C347.908 191.817 343.618 192.77 338.412 192.77ZM405.668 192.77C400.755 192.77 396.025 192.147 391.478 190.9C387.005 189.58 383.448 188.003 380.808 186.17L386.088 175.72C388.728 177.407 391.881 178.8 395.548 179.9C399.215 181 402.881 181.55 406.548 181.55C410.875 181.55 413.991 180.963 415.898 179.79C417.878 178.617 418.868 177.04 418.868 175.06C418.868 173.447 418.208 172.237 416.888 171.43C415.568 170.55 413.845 169.89 411.718 169.45C409.591 169.01 407.208 168.607 404.568 168.24C402.001 167.873 399.398 167.397 396.758 166.81C394.191 166.15 391.845 165.233 389.718 164.06C387.591 162.813 385.868 161.163 384.548 159.11C383.228 157.057 382.568 154.343 382.568 150.97C382.568 147.23 383.631 144.003 385.758 141.29C387.885 138.503 390.855 136.377 394.668 134.91C398.555 133.37 403.138 132.6 408.418 132.6C412.378 132.6 416.375 133.04 420.408 133.92C424.441 134.8 427.778 136.047 430.418 137.66L425.138 148.11C422.351 146.423 419.528 145.287 416.668 144.7C413.881 144.04 411.095 143.71 408.308 143.71C404.128 143.71 401.011 144.333 398.958 145.58C396.978 146.827 395.988 148.403 395.988 150.31C395.988 152.07 396.648 153.39 397.968 154.27C399.288 155.15 401.011 155.847 403.138 156.36C405.265 156.873 407.611 157.313 410.178 157.68C412.818 157.973 415.421 158.45 417.988 159.11C420.555 159.77 422.901 160.687 425.028 161.86C427.228 162.96 428.988 164.537 430.308 166.59C431.628 168.643 432.288 171.32 432.288 174.62C432.288 178.287 431.188 181.477 428.988 184.19C426.861 186.903 423.818 189.03 419.858 190.57C415.898 192.037 411.168 192.77 405.668 192.77ZM471.739 192.77C465.213 192.77 459.493 191.487 454.579 188.92C449.739 186.28 445.963 182.687 443.249 178.14C440.609 173.593 439.289 168.423 439.289 162.63C439.289 156.763 440.573 151.593 443.139 147.12C445.779 142.573 449.373 139.017 453.919 136.45C458.539 133.883 463.783 132.6 469.649 132.6C475.369 132.6 480.466 133.847 484.939 136.34C489.413 138.833 492.933 142.353 495.499 146.9C498.066 151.447 499.349 156.8 499.349 162.96C499.349 163.547 499.313 164.207 499.239 164.94C499.239 165.673 499.203 166.37 499.129 167.03H450.179V157.9H491.869L486.479 160.76C486.553 157.387 485.856 154.417 484.389 151.85C482.923 149.283 480.906 147.267 478.339 145.8C475.846 144.333 472.949 143.6 469.649 143.6C466.276 143.6 463.306 144.333 460.739 145.8C458.246 147.267 456.266 149.32 454.799 151.96C453.406 154.527 452.709 157.57 452.709 161.09V163.29C452.709 166.81 453.516 169.927 455.129 172.64C456.743 175.353 459.016 177.443 461.949 178.91C464.883 180.377 468.256 181.11 472.069 181.11C475.369 181.11 478.339 180.597 480.979 179.57C483.619 178.543 485.966 176.93 488.019 174.73L495.389 183.2C492.749 186.28 489.413 188.663 485.379 190.35C481.419 191.963 476.873 192.77 471.739 192.77Z" fill="black"/>
<defs>
<filter id="filter0_d_59_5" x="33" y="74" width="163" height="163" filterUnits="userSpaceOnUse" color-interpolation-filters="sRGB">
<feFlood flood-opacity="0" result="BackgroundImageFix"/>
<feColorMatrix in="SourceAlpha" type="matrix" values="0 0 0 0 0 0 0 0 0 0 0 0 0 0 0 0 0 0 127 0" result="hardAlpha"/>
<feOffset dy="4"/>
<feGaussianBlur stdDeviation="2"/>
<feComposite in2="hardAlpha" operator="out"/>
<feColorMatrix type="matrix" values="0 0 0 0 0.278846 0 0 0 0 0.278846 0 0 0 0 0.278846 0 0 0 0.42 0"/>
<feBlend mode="normal" in2="BackgroundImageFix" result="effect1_dropShadow_59_5"/>
<feBlend mode="normal" in="SourceGraphic" in2="effect1_dropShadow_59_5" result="shape"/>
</filter>
</defs>
</svg>
