<svg width="340" height="106" viewBox="0 0 340 106" fill="none" xmlns="http://www.w3.org/2000/svg">
<g clip-path="url(#clip0_68_5)">
<path d="M123.276 56.2147H134.199C135.735 56.2147 136.98 57.7808 136.98 59.693C136.98 61.6218 135.735 63.1714 134.199 63.1714H121.025C120.814 63.1714 120.615 63.2703 120.469 63.4352L116.497 67.7049C115.888 68.3643 116.259 69.6007 117.054 69.6007H133.537C133.537 69.6007 133.55 69.6007 133.55 69.5842C133.55 69.5677 133.564 69.5677 133.564 69.5677C133.775 69.5842 133.974 69.6007 134.186 69.6007C138.555 69.6007 142.103 65.1661 142.103 59.693C142.103 54.5002 138.913 50.2305 134.835 49.8184C134.835 49.8184 134.821 49.8184 134.821 49.8019C134.821 49.7854 134.821 49.7854 134.808 49.7854H123.051C121.515 49.7854 120.271 48.2193 120.271 46.307C120.271 44.3783 121.515 42.8286 123.051 42.8286H136.198C136.41 42.8286 136.622 42.7297 136.781 42.5484L140.475 38.2787C141.057 37.6028 140.673 36.3994 139.892 36.3994H123.276C123.21 36.3994 123.131 36.3994 123.064 36.3994C118.695 36.3994 115.147 40.8339 115.147 46.307C115.147 51.7801 118.695 56.2147 123.064 56.2147C123.131 56.2147 123.197 56.2147 123.276 56.2147Z" fill="black"/>
<path d="M186.854 36.3827C186.378 36.3827 185.994 36.8608 185.994 37.4707V68.5289C185.994 69.1224 186.378 69.6169 186.854 69.6169H206.846C207.085 69.6169 207.31 69.485 207.482 69.2707L209.984 65.9242C210.501 65.2318 210.117 64.0944 209.349 64.0944H191.899C191.422 64.0944 191.038 63.6163 191.038 63.0063V37.4542C191.038 36.8608 190.654 36.3662 190.177 36.3662H186.854V36.3827Z" fill="black"/>
<path fill-rule="evenodd" clip-rule="evenodd" d="M154.84 36.3828C154.84 36.3993 154.84 36.3993 154.84 36.3828C152.285 36.5312 150.233 39.0864 150.114 42.268V63.1548C150.114 63.2372 150.114 63.3362 150.114 63.4186C150.114 66.7321 152.206 69.4357 154.84 69.5676H172.979C175.601 69.4192 177.706 66.7156 177.706 63.4186C177.706 63.3362 177.706 63.2372 177.706 63.1548V42.2845C177.6 39.1029 175.548 36.5312 172.992 36.3993H154.84V36.3828ZM158.23 42.2845C158.217 42.2845 158.217 42.2845 158.23 42.2845C156.628 42.367 155.344 43.9825 155.277 45.9937V59.1324C155.277 59.1819 155.277 59.2478 155.277 59.2973C155.277 61.3744 156.588 63.0889 158.23 63.1713H169.603C171.245 63.0889 172.555 61.3744 172.555 59.2973C172.555 59.2478 172.555 59.1819 172.555 59.1324V45.9937C172.489 43.9825 171.205 42.3834 169.603 42.2845H158.23Z" fill="black"/>
<path fill-rule="evenodd" clip-rule="evenodd" d="M239.046 68.5292C239.046 69.1227 239.43 69.6173 239.907 69.6173H243.296C243.773 69.6173 244.157 69.1392 244.157 68.5292V42.8288C244.157 42.7463 244.157 42.6474 244.157 42.565C244.157 39.2515 242.078 36.5479 239.483 36.416H222.072C222.006 36.416 221.927 36.416 221.861 36.416C219.16 36.416 216.975 39.169 216.975 42.5815C216.975 42.6639 216.975 42.7628 216.975 42.8453V68.5457C216.975 69.1392 217.359 69.6337 217.836 69.6337H221.225C221.702 69.6337 222.086 69.1557 222.086 68.5457V57.8468C222.086 57.2533 222.47 56.7588 222.946 56.7588H238.225C238.702 56.7588 239.086 57.2369 239.086 57.8468V68.5292H239.046ZM222.059 50.8406V45.4994C222.059 43.4222 223.396 41.7407 225.038 41.7407H236.08C237.722 41.7407 239.059 43.4222 239.059 45.4994V50.8406C239.059 51.4341 238.675 51.9286 238.199 51.9286H222.92C222.443 51.9286 222.059 51.4505 222.059 50.8406Z" fill="black"/>
<path fill-rule="evenodd" clip-rule="evenodd" d="M310.607 69.6171C310.131 69.6171 309.747 69.1391 309.747 68.5291V57.8302C309.747 57.2367 309.363 56.7422 308.886 56.7422H293.435C292.959 56.7422 292.575 57.2203 292.575 57.8302V68.5291C292.575 69.1226 292.191 69.6171 291.714 69.6171H288.298C287.821 69.6171 287.438 69.1391 287.438 68.5291V42.8286C287.438 42.7462 287.438 42.6473 287.438 42.5649C287.438 39.1689 289.649 36.3994 292.376 36.3994C292.442 36.3994 292.522 36.3994 292.588 36.3994H310.184C312.805 36.5478 314.91 39.2514 314.91 42.5484C314.91 42.6308 314.91 42.7297 314.91 42.8122V68.5126C314.91 69.1061 314.526 69.6007 314.05 69.6007H310.607V69.6171ZM292.575 45.4993V50.8405C292.575 51.4339 292.959 51.9285 293.435 51.9285H308.886C309.363 51.9285 309.747 51.4504 309.747 50.8405V45.4993C309.747 43.4221 308.396 41.7406 306.741 41.7406H295.58C293.912 41.7406 292.575 43.4221 292.575 45.4993Z" fill="black"/>
<path d="M256.92 36.3828C257.171 36.3828 257.41 36.5147 257.568 36.762L272.768 59.3302C273.284 60.0886 274.277 59.627 274.277 58.6214V37.4708C274.277 36.8774 274.661 36.3828 275.138 36.3828H278.527C279.004 36.3828 279.388 36.8609 279.388 37.4708V68.529C279.388 69.1225 279.004 69.617 278.527 69.617H274.317C274.304 69.617 274.29 69.6005 274.29 69.5841C274.29 69.5676 274.29 69.5676 274.277 69.5511L258.813 47.1477C258.297 46.3893 257.304 46.8674 257.304 47.8565V68.5455C257.304 69.139 256.92 69.6335 256.443 69.6335H253.027C252.55 69.6335 252.167 69.1554 252.167 68.5455V37.4708C252.167 36.8774 252.55 36.3828 253.027 36.3828H256.92Z" fill="black"/>
<path d="M36.3302 70.7544C36.7539 70.2269 37.3232 69.9302 37.919 69.9302H93.0631C94.0693 69.9302 94.5724 71.4468 93.8575 72.3205L82.961 85.8879C82.5374 86.4154 81.9681 86.7121 81.3723 86.7121H26.2282C25.222 86.7121 24.7188 85.1955 25.4338 84.3218L36.3302 70.7544Z" fill="black"/>
<path d="M36.3302 20.1119C36.7539 19.5843 37.3232 19.2876 37.919 19.2876H93.0631C94.0693 19.2876 94.5724 20.8042 93.8575 21.678L82.961 35.2288C82.5374 35.7563 81.9681 36.0531 81.3723 36.0531H26.2282C25.222 36.0531 24.7188 34.5364 25.4338 33.6627L36.3302 20.1119Z" fill="black"/>
<path d="M82.961 45.2686C82.5374 44.7411 81.9681 44.4443 81.3723 44.4443H26.2282C25.222 44.4443 24.7188 45.961 25.4338 46.8347L36.3302 60.3855C36.7539 60.9131 37.3232 61.2098 37.919 61.2098H93.0631C94.0693 61.2098 94.5724 59.6932 93.8575 58.8195L82.961 45.2686Z" fill="black"/>
<g clip-path="url(#clip1_68_5)">
<path d="M29.1574 70.8998C29.6462 70.3762 30.3183 70.0708 31.0311 70.0708H95.6763C96.8576 70.0708 97.4483 71.5979 96.6132 72.4924L83.843 86.1709C83.3542 86.6945 82.6821 86.9999 81.9693 86.9999H17.3241C16.1428 86.9999 15.5521 85.4728 16.3872 84.5783L29.1574 70.8998Z" fill="url(#paint0_linear_68_5)"/>
<path d="M29.1574 19.829C29.6665 19.3054 30.3386 19 31.0311 19H95.6763C96.8576 19 97.4483 20.5271 96.6132 21.4216L83.843 35.1001C83.3542 35.6237 82.6821 35.9291 81.9693 35.9291H17.3241C16.1428 35.9291 15.5521 34.402 16.3872 33.5075L29.1574 19.829Z" fill="url(#paint1_linear_68_5)"/>
<path d="M83.843 45.2011C83.3542 44.6775 82.6821 44.3721 81.9693 44.3721H17.3241C16.1428 44.3721 15.5521 45.8992 16.3872 46.7936L29.1574 60.4722C29.6462 60.9957 30.3183 61.3012 31.0311 61.3012H95.6763C96.8576 61.3012 97.4483 59.7741 96.6132 58.8796L83.843 45.2011Z" fill="url(#paint2_linear_68_5)"/>
</g>
</g>
<defs>
<linearGradient id="paint0_linear_68_5" x1="89.5008" y1="10.8287" x2="39.7402" y2="99.8108" gradientUnits="userSpaceOnUse">
<stop stop-color="#00FFA3"/>
<stop offset="1" stop-color="#DC1FFF"/>
</linearGradient>
<linearGradient id="paint1_linear_68_5" x1="69.9382" y1="-0.110989" x2="20.1776" y2="88.8711" gradientUnits="userSpaceOnUse">
<stop stop-color="#00FFA3"/>
<stop offset="1" stop-color="#DC1FFF"/>
</linearGradient>
<linearGradient id="paint2_linear_68_5" x1="79.6573" y1="5.32433" x2="29.8967" y2="94.3065" gradientUnits="userSpaceOnUse">
<stop stop-color="#00FFA3"/>
<stop offset="1" stop-color="#DC1FFF"/>
</linearGradient>
<clipPath id="clip0_68_5">
<rect width="340" height="106" fill="white"/>
</clipPath>
<clipPath id="clip1_68_5">
<rect width="81" height="68" fill="white" transform="translate(16 19)"/>
</clipPath>
</defs>
</svg>
